<?xml version="1.0" encoding="utf-8"?>
<!-- Generator: Adobe Illustrator 16.0.0, SVG Export Plug-In . SVG Version: 6.00 Build 0)  -->
<!DOCTYPE svg PUBLIC "-//W3C//DTD SVG 1.1//EN" "http://www.w3.org/Graphics/SVG/1.1/DTD/svg11.dtd">
<svg version="1.1" id="Layer_1" xmlns:svg="http://www.w3.org/2000/svg"
	 xmlns="http://www.w3.org/2000/svg" xmlns:xlink="http://www.w3.org/1999/xlink" x="0px" y="0px" width="102.882px"
	 height="111.199px" viewBox="0 20 102.882 111.199" enable-background="new 0 0 245.037 151.2" xml:space="preserve">
 <g id="breadboardbreadboard">
	<g id="background">
		<rect id="rect425" x="0" y="20" fill="#D9D9D9" width="102.882" height="111.199"/>
	</g>
	<g id="grooves">
		<rect id="rect428" x="0.921" y="20.933" fill="#B3B0B0" width="101.04" height="0.45"/>
		<rect id="rect430" x="0.921" y="129.475" fill="#B3B0B0" width="101.04" height="0.449"/>
		<g id="g436">
<!-- 			<path id="path438" fill="#CCC9C9" d="M10.821,71.803c-2.001,0-3.625,1.624-3.625,3.626c0,2.001,1.624,3.625,3.625,3.625h219.697
				v-7.251H10.821L10.821,71.803z"/> -->
			<rect id="rect438" x="0.921" y="72.704" fill="#CCC9C9" width="101.04" height="5.449"/>
		</g>
	</g>
	<g id="text">
		<text id="text443" transform="matrix(1 0 0 1 24.4592 30.9956)" fill="#B3B0B0" font-family="'DroidSans'" font-size="4.6036">1</text>
		<text id="text445" transform="matrix(1 0 0 1 53.1135 30.9956)" fill="#B3B0B0" font-family="'DroidSans'" font-size="4.6036">5</text>
		<text id="text447" transform="matrix(1 0 0 1 74.719 31.000)" fill="#B3B0B0" font-family="'DroidSans'" font-size="4.6036">8</text>
		<text id="text469" transform="matrix(1 0 0 1 24.4592 122.395)" fill="#B3B0B0" font-family="'DroidSans'" font-size="4.6036">1</text>
		<text id="text471" transform="matrix(1 0 0 1 53.1135 122.395)" fill="#B3B0B0" font-family="'DroidSans'" font-size="4.6036">5</text>
		<text id="text473" transform="matrix(1 0 0 1 74.719 122.395)" fill="#B3B0B0" font-family="'DroidSans'" font-size="4.6036">8</text>
		<text id="text495" transform="matrix(1 0 0 1 4.0613 37.2148)" fill="#B3B0B0" font-family="'DroidSans'" font-size="4.6036">A</text>
		<text id="text497" transform="matrix(1 0 0 1 4.0613 44.4683)" fill="#B3B0B0" font-family="'DroidSans'" font-size="4.6036">B</text>
		<text id="text499" transform="matrix(1 0 0 1 4.1047 51.7192)" fill="#B3B0B0" font-family="'DroidSans'" font-size="4.6036">C</text>
		<text id="text501" transform="matrix(1 0 0 1 4.0198 58.9702)" fill="#B3B0B0" font-family="'DroidSans'" font-size="4.6036">D</text>
		<text id="text503" transform="matrix(1 0 0 1 4.2336 66.2217)" fill="#B3B0B0" font-family="'DroidSans'" font-size="4.6036">E</text>
		<text id="text505" transform="matrix(1 0 0 1 4.2751 87.9771)" fill="#B3B0B0" font-family="'DroidSans'" font-size="4.6036">F</text>
		<text id="text507" transform="matrix(1 0 0 1 4.0613 95.2271)" fill="#B3B0B0" font-family="'DroidSans'" font-size="4.6036">G</text>
		<text id="text509" transform="matrix(1 0 0 1 4.0613 102.479)" fill="#B3B0B0" font-family="'DroidSans'" font-size="4.6036">H</text>
		<text id="text511" transform="matrix(1 0 0 1 4.7468 109.731)" fill="#B3B0B0" font-family="'DroidSans'" font-size="4.6036">I</text>
		<text id="text513" transform="matrix(1 0 0 1 4.2751 116.9829)" fill="#B3B0B0" font-family="'DroidSans'" font-size="4.6036">J</text>
	</g>
	<g id="sockets">
		<g id="A1pin">
			<path fill="#BFBFBF" d="M22.926,36c0-1.322,1.072-2.394,2.394-2.394c1.322,0,2.394,1.072,2.394,2.394"/>
			<path fill="#E6E6E6" d="M27.713,36c0,1.322-1.071,2.394-2.394,2.394c-1.321,0-2.394-1.072-2.394-2.394"/>
			<circle id="circle611" fill="#383838" cx="25.32" cy="36" r="1.197"/>
		</g>
		<g id="B1pin">
			<path fill="#BFBFBF" d="M22.926,43.2c0-1.322,1.072-2.394,2.394-2.394c1.322,0,2.394,1.072,2.394,2.394"/>
			<path fill="#E6E6E6" d="M27.713,43.2c0,1.322-1.071,2.394-2.394,2.394c-1.321,0-2.394-1.071-2.394-2.394"/>
			<circle id="circle618" fill="#383838" cx="25.32" cy="43.2" r="1.197"/>
		</g>
		<g id="C1pin">
			<path fill="#BFBFBF" d="M22.926,50.4c0-1.322,1.072-2.394,2.394-2.394c1.322,0,2.394,1.071,2.394,2.394"/>
			<path fill="#E6E6E6" d="M27.713,50.4c0,1.322-1.071,2.394-2.394,2.394c-1.321,0-2.394-1.072-2.394-2.394l0,0"/>
			<circle id="circle625" fill="#383838" cx="25.32" cy="50.4" r="1.197"/>
		</g>
		<g id="D1pin">
			<path fill="#BFBFBF" d="M22.926,57.6c0-1.322,1.072-2.394,2.394-2.394c1.322,0,2.394,1.072,2.394,2.394"/>
			<path fill="#E6E6E6" d="M27.713,57.6c0,1.322-1.071,2.394-2.394,2.394c-1.321,0-2.394-1.072-2.394-2.394l0,0"/>
			<circle id="circle632" fill="#383838" cx="25.32" cy="57.6" r="1.197"/>
		</g>
		<g id="E1pin">
			<path fill="#BFBFBF" d="M22.926,64.8c0-1.322,1.072-2.394,2.394-2.394c1.322,0,2.394,1.072,2.394,2.394"/>
			<path fill="#E6E6E6" d="M27.713,64.8c0,1.322-1.071,2.394-2.394,2.394c-1.321,0-2.394-1.072-2.394-2.394"/>
			<circle id="circle639" fill="#383838" cx="25.32" cy="64.8" r="1.197"/>
		</g>
		<g id="A2pin">
			<path fill="#BFBFBF" d="M30.126,36c0-1.322,1.071-2.394,2.394-2.394s2.394,1.072,2.394,2.394"/>
			<path fill="#E6E6E6" d="M34.913,36c0,1.322-1.071,2.394-2.394,2.394S30.126,37.322,30.126,36"/>
			<circle id="circle646" fill="#383838" cx="32.52" cy="36" r="1.197"/>
		</g>
		<g id="B2pin">
			<path fill="#BFBFBF" d="M30.126,43.2c0-1.322,1.071-2.394,2.394-2.394s2.394,1.072,2.394,2.394"/>
			<path fill="#E6E6E6" d="M34.913,43.2c0,1.322-1.071,2.394-2.394,2.394s-2.394-1.071-2.394-2.394"/>
			<circle id="circle653" fill="#383838" cx="32.52" cy="43.2" r="1.197"/>
		</g>
		<g id="C2pin">
			<path fill="#BFBFBF" d="M30.126,50.4c0-1.322,1.071-2.394,2.394-2.394s2.394,1.071,2.394,2.394"/>
			<path fill="#E6E6E6" d="M34.913,50.4c0,1.322-1.071,2.394-2.394,2.394s-2.394-1.072-2.394-2.394l0,0"/>
			<circle id="circle660" fill="#383838" cx="32.52" cy="50.4" r="1.197"/>
		</g>
		<g id="D2pin">
			<path fill="#BFBFBF" d="M30.126,57.6c0-1.322,1.071-2.394,2.394-2.394s2.394,1.072,2.394,2.394"/>
			<path fill="#E6E6E6" d="M34.913,57.6c0,1.322-1.071,2.394-2.394,2.394s-2.394-1.072-2.394-2.394l0,0"/>
			<circle id="circle667" fill="#383838" cx="32.52" cy="57.6" r="1.197"/>
		</g>
		<g id="E2pin">
			<path fill="#BFBFBF" d="M30.126,64.8c0-1.322,1.071-2.394,2.394-2.394s2.394,1.072,2.394,2.394"/>
			<path fill="#E6E6E6" d="M34.913,64.8c0,1.322-1.071,2.394-2.394,2.394s-2.394-1.072-2.394-2.394"/>
			<circle id="circle674" fill="#383838" cx="32.52" cy="64.8" r="1.197"/>
		</g>
		<g id="A3pin">
			<path fill="#BFBFBF" d="M37.326,36c0-1.322,1.071-2.394,2.394-2.394c1.321,0,2.394,1.072,2.394,2.394"/>
			<path fill="#E6E6E6" d="M42.114,36c0,1.322-1.072,2.394-2.394,2.394c-1.322,0-2.394-1.072-2.394-2.394"/>
			<circle id="circle681" fill="#383838" cx="39.72" cy="36" r="1.197"/>
		</g>
		<g id="B3pin">
			<path fill="#BFBFBF" d="M37.326,43.2c0-1.322,1.071-2.394,2.394-2.394c1.321,0,2.394,1.072,2.394,2.394"/>
			<path fill="#E6E6E6" d="M42.114,43.2c0,1.322-1.072,2.394-2.394,2.394c-1.322,0-2.394-1.071-2.394-2.394"/>
			<circle id="circle688" fill="#383838" cx="39.72" cy="43.2" r="1.197"/>
		</g>
		<g id="C3pin">
			<path fill="#BFBFBF" d="M37.326,50.4c0-1.322,1.071-2.394,2.394-2.394c1.321,0,2.394,1.071,2.394,2.394"/>
			<path fill="#E6E6E6" d="M42.114,50.4c0,1.322-1.072,2.394-2.394,2.394c-1.322,0-2.394-1.072-2.394-2.394l0,0"/>
			<circle id="circle695" fill="#383838" cx="39.72" cy="50.4" r="1.197"/>
		</g>
		<g id="D3pin">
			<path fill="#BFBFBF" d="M37.326,57.6c0-1.322,1.071-2.394,2.394-2.394c1.321,0,2.394,1.072,2.394,2.394"/>
			<path fill="#E6E6E6" d="M42.114,57.6c0,1.322-1.072,2.394-2.394,2.394c-1.322,0-2.394-1.072-2.394-2.394l0,0"/>
			<circle id="circle702" fill="#383838" cx="39.72" cy="57.6" r="1.197"/>
		</g>
		<g id="E3pin">
			<path fill="#BFBFBF" d="M37.326,64.8c0-1.322,1.071-2.394,2.394-2.394c1.321,0,2.394,1.072,2.394,2.394"/>
			<path fill="#E6E6E6" d="M42.114,64.8c0,1.322-1.072,2.394-2.394,2.394c-1.322,0-2.394-1.072-2.394-2.394"/>
			<circle id="circle709" fill="#383838" cx="39.72" cy="64.8" r="1.197"/>
		</g>
		<g id="A4pin">
			<path fill="#BFBFBF" d="M44.526,36c0-1.322,1.072-2.394,2.394-2.394c1.322,0,2.394,1.072,2.394,2.394"/>
			<path fill="#E6E6E6" d="M49.313,36c0,1.322-1.071,2.394-2.394,2.394c-1.321,0-2.394-1.072-2.394-2.394"/>
			<circle id="circle716" fill="#383838" cx="46.919" cy="36" r="1.197"/>
		</g>
		<g id="B4pin">
			<path fill="#BFBFBF" d="M44.526,43.2c0-1.322,1.072-2.394,2.394-2.394c1.322,0,2.394,1.072,2.394,2.394"/>
			<path fill="#E6E6E6" d="M49.313,43.2c0,1.322-1.071,2.394-2.394,2.394c-1.321,0-2.394-1.071-2.394-2.394"/>
			<circle id="circle723" fill="#383838" cx="46.919" cy="43.2" r="1.197"/>
		</g>
		<g id="C4pin">
			<path fill="#BFBFBF" d="M44.526,50.4c0-1.322,1.072-2.394,2.394-2.394c1.322,0,2.394,1.071,2.394,2.394"/>
			<path fill="#E6E6E6" d="M49.313,50.4c0,1.322-1.071,2.394-2.394,2.394c-1.321,0-2.394-1.072-2.394-2.394l0,0"/>
			<circle id="circle730" fill="#383838" cx="46.919" cy="50.4" r="1.197"/>
		</g>
		<g id="D4pin">
			<path fill="#BFBFBF" d="M44.526,57.6c0-1.322,1.072-2.394,2.394-2.394c1.322,0,2.394,1.072,2.394,2.394"/>
			<path fill="#E6E6E6" d="M49.313,57.6c0,1.322-1.071,2.394-2.394,2.394c-1.321,0-2.394-1.072-2.394-2.394l0,0"/>
			<circle id="circle737" fill="#383838" cx="46.919" cy="57.6" r="1.197"/>
		</g>
		<g id="E4pin">
			<path fill="#BFBFBF" d="M44.526,64.8c0-1.322,1.072-2.394,2.394-2.394c1.322,0,2.394,1.072,2.394,2.394"/>
			<path fill="#E6E6E6" d="M49.313,64.8c0,1.322-1.071,2.394-2.394,2.394c-1.321,0-2.394-1.072-2.394-2.394"/>
			<circle id="circle744" fill="#383838" cx="46.919" cy="64.8" r="1.197"/>
		</g>
		<g id="A5pin">
			<path fill="#BFBFBF" d="M51.726,36c0-1.322,1.071-2.394,2.394-2.394s2.394,1.072,2.394,2.394"/>
			<path fill="#E6E6E6" d="M56.513,36c0,1.322-1.071,2.394-2.394,2.394S51.726,37.322,51.726,36"/>
			<circle id="circle751" fill="#383838" cx="54.119" cy="36" r="1.197"/>
		</g>
		<g id="B5pin">
			<path fill="#BFBFBF" d="M51.726,43.2c0-1.322,1.071-2.394,2.394-2.394s2.394,1.072,2.394,2.394"/>
			<path fill="#E6E6E6" d="M56.513,43.2c0,1.322-1.071,2.394-2.394,2.394s-2.394-1.071-2.394-2.394"/>
			<circle id="circle758" fill="#383838" cx="54.119" cy="43.2" r="1.197"/>
		</g>
		<g id="C5pin">
			<path fill="#BFBFBF" d="M51.726,50.4c0-1.322,1.071-2.394,2.394-2.394s2.394,1.071,2.394,2.394"/>
			<path fill="#E6E6E6" d="M56.513,50.4c0,1.322-1.071,2.394-2.394,2.394s-2.394-1.072-2.394-2.394l0,0"/>
			<circle id="circle765" fill="#383838" cx="54.119" cy="50.4" r="1.197"/>
		</g>
		<g id="D5pin">
			<path fill="#BFBFBF" d="M51.726,57.6c0-1.322,1.071-2.394,2.394-2.394s2.394,1.072,2.394,2.394"/>
			<path fill="#E6E6E6" d="M56.513,57.6c0,1.322-1.071,2.394-2.394,2.394s-2.394-1.072-2.394-2.394l0,0"/>
			<circle id="circle772" fill="#383838" cx="54.119" cy="57.6" r="1.197"/>
		</g>
		<g id="E5pin">
			<path fill="#BFBFBF" d="M51.726,64.8c0-1.322,1.071-2.394,2.394-2.394s2.394,1.072,2.394,2.394"/>
			<path fill="#E6E6E6" d="M56.513,64.8c0,1.322-1.071,2.394-2.394,2.394s-2.394-1.072-2.394-2.394"/>
			<circle id="circle779" fill="#383838" cx="54.119" cy="64.8" r="1.197"/>
		</g>
		<g id="A6pin">
			<path fill="#BFBFBF" d="M58.926,36c0-1.322,1.071-2.394,2.394-2.394c1.321,0,2.394,1.072,2.394,2.394"/>
			<path fill="#E6E6E6" d="M63.713,36c0,1.322-1.072,2.394-2.394,2.394c-1.322,0-2.394-1.072-2.394-2.394"/>
			<circle id="circle786" fill="#383838" cx="61.32" cy="36" r="1.197"/>
		</g>
		<g id="B6pin">
			<path fill="#BFBFBF" d="M58.926,43.2c0-1.322,1.071-2.394,2.394-2.394c1.321,0,2.394,1.072,2.394,2.394"/>
			<path fill="#E6E6E6" d="M63.713,43.2c0,1.322-1.072,2.394-2.394,2.394c-1.322,0-2.394-1.071-2.394-2.394"/>
			<circle id="circle793" fill="#383838" cx="61.32" cy="43.2" r="1.197"/>
		</g>
		<g id="C6pin">
			<path fill="#BFBFBF" d="M58.926,50.4c0-1.322,1.071-2.394,2.394-2.394c1.321,0,2.394,1.071,2.394,2.394"/>
			<path fill="#E6E6E6" d="M63.713,50.4c0,1.322-1.072,2.394-2.394,2.394c-1.322,0-2.394-1.072-2.394-2.394l0,0"/>
			<circle id="circle800" fill="#383838" cx="61.32" cy="50.4" r="1.197"/>
		</g>
		<g id="D6pin">
			<path fill="#BFBFBF" d="M58.926,57.6c0-1.322,1.071-2.394,2.394-2.394c1.321,0,2.394,1.072,2.394,2.394"/>
			<path fill="#E6E6E6" d="M63.713,57.6c0,1.322-1.072,2.394-2.394,2.394c-1.322,0-2.394-1.072-2.394-2.394l0,0"/>
			<circle id="circle807" fill="#383838" cx="61.32" cy="57.6" r="1.197"/>
		</g>
		<g id="E6pin">
			<path fill="#BFBFBF" d="M58.926,64.8c0-1.322,1.071-2.394,2.394-2.394c1.321,0,2.394,1.072,2.394,2.394"/>
			<path fill="#E6E6E6" d="M63.713,64.8c0,1.322-1.072,2.394-2.394,2.394c-1.322,0-2.394-1.072-2.394-2.394"/>
			<circle id="circle814" fill="#383838" cx="61.32" cy="64.8" r="1.197"/>
		</g>
		<g id="A7pin">
			<path fill="#BFBFBF" d="M66.126,36c0-1.322,1.071-2.394,2.394-2.394c1.321,0,2.394,1.072,2.394,2.394"/>
			<path fill="#E6E6E6" d="M70.913,36c0,1.322-1.072,2.394-2.394,2.394c-1.322,0-2.394-1.072-2.394-2.394"/>
			<circle id="circle821" fill="#383838" cx="68.52" cy="36" r="1.197"/>
		</g>
		<g id="B7pin">
			<path fill="#BFBFBF" d="M66.126,43.2c0-1.322,1.071-2.394,2.394-2.394c1.321,0,2.394,1.072,2.394,2.394"/>
			<path fill="#E6E6E6" d="M70.913,43.2c0,1.322-1.072,2.394-2.394,2.394c-1.322,0-2.394-1.071-2.394-2.394"/>
			<circle id="circle828" fill="#383838" cx="68.52" cy="43.2" r="1.197"/>
		</g>
		<g id="C7pin">
			<path fill="#BFBFBF" d="M66.126,50.4c0-1.322,1.071-2.394,2.394-2.394c1.321,0,2.394,1.071,2.394,2.394"/>
			<path fill="#E6E6E6" d="M70.913,50.4c0,1.322-1.072,2.394-2.394,2.394c-1.322,0-2.394-1.072-2.394-2.394l0,0"/>
			<circle id="circle835" fill="#383838" cx="68.52" cy="50.4" r="1.197"/>
		</g>
		<g id="D7pin">
			<path fill="#BFBFBF" d="M66.126,57.6c0-1.322,1.071-2.394,2.394-2.394c1.321,0,2.394,1.072,2.394,2.394"/>
			<path fill="#E6E6E6" d="M70.913,57.6c0,1.322-1.072,2.394-2.394,2.394c-1.322,0-2.394-1.072-2.394-2.394l0,0"/>
			<circle id="circle842" fill="#383838" cx="68.52" cy="57.6" r="1.197"/>
		</g>
		<g id="E7pin">
			<path fill="#BFBFBF" d="M66.126,64.8c0-1.322,1.071-2.394,2.394-2.394c1.321,0,2.394,1.072,2.394,2.394"/>
			<path fill="#E6E6E6" d="M70.913,64.8c0,1.322-1.072,2.394-2.394,2.394c-1.322,0-2.394-1.072-2.394-2.394"/>
			<circle id="circle849" fill="#383838" cx="68.52" cy="64.8" r="1.197"/>
		</g>
		<g id="A8pin">
			<path fill="#BFBFBF" d="M73.325,36c0-1.322,1.072-2.394,2.394-2.394c1.322,0,2.394,1.072,2.394,2.394"/>
			<path fill="#E6E6E6" d="M78.113,36c0,1.322-1.071,2.394-2.394,2.394c-1.321,0-2.394-1.072-2.394-2.394"/>
			<circle id="circle856" fill="#383838" cx="75.719" cy="36" r="1.197"/>
		</g>
		<g id="B8pin">
			<path fill="#BFBFBF" d="M73.325,43.2c0-1.322,1.072-2.394,2.394-2.394c1.322,0,2.394,1.072,2.394,2.394"/>
			<path fill="#E6E6E6" d="M78.113,43.2c0,1.322-1.071,2.394-2.394,2.394c-1.321,0-2.394-1.071-2.394-2.394"/>
			<circle id="circle863" fill="#383838" cx="75.719" cy="43.2" r="1.197"/>
		</g>
		<g id="C8pin">
			<path fill="#BFBFBF" d="M73.325,50.4c0-1.322,1.072-2.394,2.394-2.394c1.322,0,2.394,1.071,2.394,2.394"/>
			<path fill="#E6E6E6" d="M78.113,50.4c0,1.322-1.071,2.394-2.394,2.394c-1.321,0-2.394-1.072-2.394-2.394l0,0"/>
			<circle id="circle870" fill="#383838" cx="75.719" cy="50.4" r="1.197"/>
		</g>
		<g id="D8pin">
			<path fill="#BFBFBF" d="M73.325,57.6c0-1.322,1.072-2.394,2.394-2.394c1.322,0,2.394,1.072,2.394,2.394"/>
			<path fill="#E6E6E6" d="M78.113,57.6c0,1.322-1.071,2.394-2.394,2.394c-1.321,0-2.394-1.072-2.394-2.394l0,0"/>
			<circle id="circle877" fill="#383838" cx="75.719" cy="57.6" r="1.197"/>
		</g>
		<g id="E8pin">
			<path fill="#BFBFBF" d="M73.325,64.8c0-1.322,1.072-2.394,2.394-2.394c1.322,0,2.394,1.072,2.394,2.394"/>
			<path fill="#E6E6E6" d="M78.113,64.8c0,1.322-1.071,2.394-2.394,2.394c-1.321,0-2.394-1.072-2.394-2.394"/>
			<circle id="circle884" fill="#383838" cx="75.719" cy="64.8" r="1.197"/>
		</g>
		<g id="F1pin">
			<path fill="#BFBFBF" d="M22.926,86.4c0-1.321,1.072-2.394,2.394-2.394c1.322,0,2.394,1.072,2.394,2.394"/>
			<path fill="#E6E6E6" d="M27.713,86.4c0,1.321-1.071,2.394-2.394,2.394c-1.321,0-2.394-1.072-2.394-2.394"/>
			<circle id="circle1731" fill="#383838" cx="25.32" cy="86.4" r="1.196"/>
		</g>
		<g id="G1pin">
			<path fill="#BFBFBF" d="M22.926,93.6c0-1.322,1.072-2.395,2.394-2.395c1.322,0,2.394,1.072,2.394,2.395"/>
			<path fill="#E6E6E6" d="M27.713,93.6c0,1.322-1.071,2.393-2.394,2.393c-1.321,0-2.394-1.07-2.394-2.393l0,0"/>
			<circle id="circle1738" fill="#383838" cx="25.32" cy="93.6" r="1.197"/>
		</g>
		<g id="H1pin">
			<path fill="#BFBFBF" d="M22.926,100.799c0-1.322,1.072-2.393,2.394-2.393c1.322,0,2.394,1.07,2.394,2.393"/>
			<path fill="#E6E6E6" d="M27.713,100.799c0,1.322-1.071,2.395-2.394,2.395c-1.321,0-2.394-1.072-2.394-2.395l0,0"/>
			<circle id="circle1745" fill="#383838" cx="25.32" cy="100.8" r="1.197"/>
		</g>
		<g id="I1pin">
			<path fill="#BFBFBF" d="M22.926,108c0-1.321,1.072-2.394,2.394-2.394c1.322,0,2.394,1.072,2.394,2.394"/>
			<path fill="#E6E6E6" d="M27.713,108c0,1.322-1.071,2.394-2.394,2.394c-1.321,0-2.394-1.071-2.394-2.394"/>
			<circle id="circle1752" fill="#383838" cx="25.32" cy="108" r="1.196"/>
		</g>
		<g id="J1pin">
			<path fill="#BFBFBF" d="M22.926,115.2c0-1.322,1.072-2.394,2.394-2.394c1.322,0,2.394,1.071,2.394,2.394"/>
			<path fill="#E6E6E6" d="M27.713,115.2c0,1.322-1.071,2.394-2.394,2.394c-1.321,0-2.394-1.071-2.394-2.394l0,0"/>
			<circle id="circle1759" fill="#383838" cx="25.32" cy="115.2" r="1.197"/>
		</g>
		<g id="F2pin">
			<path fill="#BFBFBF" d="M30.126,86.4c0-1.321,1.071-2.394,2.394-2.394s2.394,1.072,2.394,2.394"/>
			<path fill="#E6E6E6" d="M34.913,86.4c0,1.321-1.071,2.394-2.394,2.394s-2.394-1.072-2.394-2.394"/>
			<circle id="circle1766" fill="#383838" cx="32.52" cy="86.4" r="1.196"/>
		</g>
		<g id="G2pin">
			<path fill="#BFBFBF" d="M30.126,93.6c0-1.322,1.071-2.395,2.394-2.395s2.394,1.072,2.394,2.395"/>
			<path fill="#E6E6E6" d="M34.913,93.6c0,1.322-1.071,2.393-2.394,2.393s-2.394-1.07-2.394-2.393l0,0"/>
			<circle id="circle1773" fill="#383838" cx="32.52" cy="93.6" r="1.197"/>
		</g>
		<g id="H2pin">
			<path fill="#BFBFBF" d="M30.126,100.799c0-1.322,1.071-2.393,2.394-2.393s2.394,1.07,2.394,2.393"/>
			<path fill="#E6E6E6" d="M34.913,100.799c0,1.322-1.071,2.395-2.394,2.395s-2.394-1.072-2.394-2.395l0,0"/>
			<circle id="circle1780" fill="#383838" cx="32.52" cy="100.8" r="1.197"/>
		</g>
		<g id="I2pin">
			<path fill="#BFBFBF" d="M30.126,108c0-1.321,1.071-2.394,2.394-2.394s2.394,1.072,2.394,2.394"/>
			<path fill="#E6E6E6" d="M34.913,108c0,1.322-1.071,2.394-2.394,2.394s-2.394-1.071-2.394-2.394"/>
			<circle id="circle1787" fill="#383838" cx="32.52" cy="108" r="1.196"/>
		</g>
		<g id="J2pin">
			<path fill="#BFBFBF" d="M30.126,115.2c0-1.322,1.071-2.394,2.394-2.394s2.394,1.071,2.394,2.394"/>
			<path fill="#E6E6E6" d="M34.913,115.2c0,1.322-1.071,2.394-2.394,2.394s-2.394-1.071-2.394-2.394l0,0"/>
			<circle id="circle1794" fill="#383838" cx="32.52" cy="115.2" r="1.197"/>
		</g>
		<g id="F3pin">
			<path fill="#BFBFBF" d="M37.326,86.4c0-1.321,1.071-2.394,2.394-2.394c1.321,0,2.394,1.072,2.394,2.394"/>
			<path fill="#E6E6E6" d="M42.114,86.4c0,1.321-1.072,2.394-2.394,2.394c-1.322,0-2.394-1.072-2.394-2.394"/>
			<circle id="circle1801" fill="#383838" cx="39.72" cy="86.4" r="1.196"/>
		</g>
		<g id="G3pin">
			<path fill="#BFBFBF" d="M37.326,93.6c0-1.322,1.071-2.395,2.394-2.395c1.321,0,2.394,1.072,2.394,2.395"/>
			<path fill="#E6E6E6" d="M42.114,93.6c0,1.322-1.072,2.393-2.394,2.393c-1.322,0-2.394-1.07-2.394-2.393l0,0"/>
			<circle id="circle1808" fill="#383838" cx="39.72" cy="93.6" r="1.197"/>
		</g>
		<g id="H3pin">
			<path fill="#BFBFBF" d="M37.326,100.799c0-1.322,1.071-2.393,2.394-2.393c1.321,0,2.394,1.07,2.394,2.393"/>
			<path fill="#E6E6E6" d="M42.114,100.799c0,1.322-1.072,2.395-2.394,2.395c-1.322,0-2.394-1.072-2.394-2.395l0,0"/>
			<circle id="circle1815" fill="#383838" cx="39.72" cy="100.8" r="1.197"/>
		</g>
		<g id="I3pin">
			<path fill="#BFBFBF" d="M37.326,108c0-1.321,1.071-2.394,2.394-2.394c1.321,0,2.394,1.072,2.394,2.394"/>
			<path fill="#E6E6E6" d="M42.114,108c0,1.322-1.072,2.394-2.394,2.394c-1.322,0-2.394-1.071-2.394-2.394"/>
			<circle id="circle1822" fill="#383838" cx="39.72" cy="108" r="1.196"/>
		</g>
		<g id="J3pin">
			<path fill="#BFBFBF" d="M37.326,115.2c0-1.322,1.071-2.394,2.394-2.394c1.321,0,2.394,1.071,2.394,2.394"/>
			<path fill="#E6E6E6" d="M42.114,115.2c0,1.322-1.072,2.394-2.394,2.394c-1.322,0-2.394-1.071-2.394-2.394l0,0"/>
			<circle id="circle1829" fill="#383838" cx="39.72" cy="115.2" r="1.197"/>
		</g>
		<g id="F4pin">
			<path fill="#BFBFBF" d="M44.526,86.4c0-1.321,1.072-2.394,2.394-2.394c1.322,0,2.394,1.072,2.394,2.394"/>
			<path fill="#E6E6E6" d="M49.313,86.4c0,1.321-1.071,2.394-2.394,2.394c-1.321,0-2.394-1.072-2.394-2.394"/>
			<circle id="circle1836" fill="#383838" cx="46.919" cy="86.4" r="1.196"/>
		</g>
		<g id="G4pin">
			<path fill="#BFBFBF" d="M44.526,93.6c0-1.322,1.072-2.395,2.394-2.395c1.322,0,2.394,1.072,2.394,2.395"/>
			<path fill="#E6E6E6" d="M49.313,93.6c0,1.322-1.071,2.393-2.394,2.393c-1.321,0-2.394-1.07-2.394-2.393l0,0"/>
			<circle id="circle1843" fill="#383838" cx="46.919" cy="93.6" r="1.197"/>
		</g>
		<g id="H4pin">
			<path fill="#BFBFBF" d="M44.526,100.799c0-1.322,1.072-2.393,2.394-2.393c1.322,0,2.394,1.07,2.394,2.393"/>
			<path fill="#E6E6E6" d="M49.313,100.799c0,1.322-1.071,2.395-2.394,2.395c-1.321,0-2.394-1.072-2.394-2.395l0,0"/>
			<circle id="circle1850" fill="#383838" cx="46.919" cy="100.8" r="1.197"/>
		</g>
		<g id="I4pin">
			<path fill="#BFBFBF" d="M44.526,108c0-1.321,1.072-2.394,2.394-2.394c1.322,0,2.394,1.072,2.394,2.394"/>
			<path fill="#E6E6E6" d="M49.313,108c0,1.322-1.071,2.394-2.394,2.394c-1.321,0-2.394-1.071-2.394-2.394"/>
			<circle id="circle1857" fill="#383838" cx="46.919" cy="108" r="1.196"/>
		</g>
		<g id="J4pin">
			<path fill="#BFBFBF" d="M44.526,115.2c0-1.322,1.072-2.394,2.394-2.394c1.322,0,2.394,1.071,2.394,2.394"/>
			<path fill="#E6E6E6" d="M49.313,115.2c0,1.322-1.071,2.394-2.394,2.394c-1.321,0-2.394-1.071-2.394-2.394l0,0"/>
			<circle id="circle1864" fill="#383838" cx="46.919" cy="115.2" r="1.197"/>
		</g>
		<g id="F5pin">
			<path fill="#BFBFBF" d="M51.726,86.4c0-1.321,1.071-2.394,2.394-2.394s2.394,1.072,2.394,2.394"/>
			<path fill="#E6E6E6" d="M56.513,86.4c0,1.321-1.071,2.394-2.394,2.394s-2.394-1.072-2.394-2.394"/>
			<circle id="circle1871" fill="#383838" cx="54.119" cy="86.4" r="1.196"/>
		</g>
		<g id="G5pin">
			<path fill="#BFBFBF" d="M51.726,93.6c0-1.322,1.071-2.395,2.394-2.395s2.394,1.072,2.394,2.395"/>
			<path fill="#E6E6E6" d="M56.513,93.6c0,1.322-1.071,2.393-2.394,2.393s-2.394-1.07-2.394-2.393l0,0"/>
			<circle id="circle1878" fill="#383838" cx="54.119" cy="93.6" r="1.197"/>
		</g>
		<g id="H5pin">
			<path fill="#BFBFBF" d="M51.726,100.799c0-1.322,1.071-2.393,2.394-2.393s2.394,1.07,2.394,2.393"/>
			<path fill="#E6E6E6" d="M56.513,100.799c0,1.322-1.071,2.395-2.394,2.395s-2.394-1.072-2.394-2.395l0,0"/>
			<circle id="circle1885" fill="#383838" cx="54.119" cy="100.8" r="1.197"/>
		</g>
		<g id="I5pin">
			<path fill="#BFBFBF" d="M51.726,108c0-1.321,1.071-2.394,2.394-2.394s2.394,1.072,2.394,2.394"/>
			<path fill="#E6E6E6" d="M56.513,108c0,1.322-1.071,2.394-2.394,2.394s-2.394-1.071-2.394-2.394"/>
			<circle id="circle1892" fill="#383838" cx="54.119" cy="108" r="1.196"/>
		</g>
		<g id="J5pin">
			<path fill="#BFBFBF" d="M51.726,115.2c0-1.322,1.071-2.394,2.394-2.394s2.394,1.071,2.394,2.394"/>
			<path fill="#E6E6E6" d="M56.513,115.2c0,1.322-1.071,2.394-2.394,2.394s-2.394-1.071-2.394-2.394l0,0"/>
			<circle id="circle1899" fill="#383838" cx="54.119" cy="115.2" r="1.197"/>
		</g>
		<g id="F6pin">
			<path fill="#BFBFBF" d="M58.926,86.4c0-1.321,1.071-2.394,2.394-2.394c1.321,0,2.394,1.072,2.394,2.394"/>
			<path fill="#E6E6E6" d="M63.713,86.4c0,1.321-1.072,2.394-2.394,2.394c-1.322,0-2.394-1.072-2.394-2.394"/>
			<circle id="circle1906" fill="#383838" cx="61.32" cy="86.4" r="1.196"/>
		</g>
		<g id="G6pin">
			<path fill="#BFBFBF" d="M58.926,93.6c0-1.322,1.071-2.395,2.394-2.395c1.321,0,2.394,1.072,2.394,2.395"/>
			<path fill="#E6E6E6" d="M63.713,93.6c0,1.322-1.072,2.393-2.394,2.393c-1.322,0-2.394-1.07-2.394-2.393l0,0"/>
			<circle id="circle1913" fill="#383838" cx="61.32" cy="93.6" r="1.197"/>
		</g>
		<g id="H6pin">
			<path fill="#BFBFBF" d="M58.926,100.799c0-1.322,1.071-2.393,2.394-2.393c1.321,0,2.394,1.07,2.394,2.393"/>
			<path fill="#E6E6E6" d="M63.713,100.799c0,1.322-1.072,2.395-2.394,2.395c-1.322,0-2.394-1.072-2.394-2.395l0,0"/>
			<circle id="circle1920" fill="#383838" cx="61.32" cy="100.8" r="1.197"/>
		</g>
		<g id="I6pin">
			<path fill="#BFBFBF" d="M58.926,108c0-1.321,1.071-2.394,2.394-2.394c1.321,0,2.394,1.072,2.394,2.394"/>
			<path fill="#E6E6E6" d="M63.713,108c0,1.322-1.072,2.394-2.394,2.394c-1.322,0-2.394-1.071-2.394-2.394"/>
			<circle id="circle1927" fill="#383838" cx="61.32" cy="108" r="1.196"/>
		</g>
		<g id="J6pin">
			<path fill="#BFBFBF" d="M58.926,115.2c0-1.322,1.071-2.394,2.394-2.394c1.321,0,2.394,1.071,2.394,2.394"/>
			<path fill="#E6E6E6" d="M63.713,115.2c0,1.322-1.072,2.394-2.394,2.394c-1.322,0-2.394-1.071-2.394-2.394l0,0"/>
			<circle id="circle1934" fill="#383838" cx="61.32" cy="115.2" r="1.197"/>
		</g>
		<g id="F7pin">
			<path fill="#BFBFBF" d="M66.126,86.4c0-1.321,1.071-2.394,2.394-2.394c1.321,0,2.394,1.072,2.394,2.394"/>
			<path fill="#E6E6E6" d="M70.913,86.4c0,1.321-1.072,2.394-2.394,2.394c-1.322,0-2.394-1.072-2.394-2.394"/>
			<circle id="circle1941" fill="#383838" cx="68.52" cy="86.4" r="1.196"/>
		</g>
		<g id="G7pin">
			<path fill="#BFBFBF" d="M66.126,93.6c0-1.322,1.071-2.395,2.394-2.395c1.321,0,2.394,1.072,2.394,2.395"/>
			<path fill="#E6E6E6" d="M70.913,93.6c0,1.322-1.072,2.393-2.394,2.393c-1.322,0-2.394-1.07-2.394-2.393l0,0"/>
			<circle id="circle1948" fill="#383838" cx="68.52" cy="93.6" r="1.197"/>
		</g>
		<g id="H7pin">
			<path fill="#BFBFBF" d="M66.126,100.799c0-1.322,1.071-2.393,2.394-2.393c1.321,0,2.394,1.07,2.394,2.393"/>
			<path fill="#E6E6E6" d="M70.913,100.799c0,1.322-1.072,2.395-2.394,2.395c-1.322,0-2.394-1.072-2.394-2.395l0,0"/>
			<circle id="circle1955" fill="#383838" cx="68.52" cy="100.8" r="1.197"/>
		</g>
		<g id="I7pin">
			<path fill="#BFBFBF" d="M66.126,108c0-1.321,1.071-2.394,2.394-2.394c1.321,0,2.394,1.072,2.394,2.394"/>
			<path fill="#E6E6E6" d="M70.913,108c0,1.322-1.072,2.394-2.394,2.394c-1.322,0-2.394-1.071-2.394-2.394"/>
			<circle id="circle1962" fill="#383838" cx="68.52" cy="108" r="1.196"/>
		</g>
		<g id="J7pin">
			<path fill="#BFBFBF" d="M66.126,115.2c0-1.322,1.071-2.394,2.394-2.394c1.321,0,2.394,1.071,2.394,2.394"/>
			<path fill="#E6E6E6" d="M70.913,115.2c0,1.322-1.072,2.394-2.394,2.394c-1.322,0-2.394-1.071-2.394-2.394l0,0"/>
			<circle id="circle1969" fill="#383838" cx="68.52" cy="115.2" r="1.197"/>
		</g>
		<g id="F8pin">
			<path fill="#BFBFBF" d="M73.325,86.4c0-1.321,1.072-2.394,2.394-2.394c1.322,0,2.394,1.072,2.394,2.394"/>
			<path fill="#E6E6E6" d="M78.113,86.4c0,1.321-1.071,2.394-2.394,2.394c-1.321,0-2.394-1.072-2.394-2.394"/>
			<circle id="circle1976" fill="#383838" cx="75.719" cy="86.4" r="1.196"/>
		</g>
		<g id="G8pin">
			<path fill="#BFBFBF" d="M73.325,93.6c0-1.322,1.072-2.395,2.394-2.395c1.322,0,2.394,1.072,2.394,2.395"/>
			<path fill="#E6E6E6" d="M78.113,93.6c0,1.322-1.071,2.393-2.394,2.393c-1.321,0-2.394-1.07-2.394-2.393l0,0"/>
			<circle id="circle1983" fill="#383838" cx="75.719" cy="93.6" r="1.197"/>
		</g>
		<g id="H8pin">
			<path fill="#BFBFBF" d="M73.325,100.799c0-1.322,1.072-2.393,2.394-2.393c1.322,0,2.394,1.07,2.394,2.393"/>
			<path fill="#E6E6E6" d="M78.113,100.799c0,1.322-1.071,2.395-2.394,2.395c-1.321,0-2.394-1.072-2.394-2.395l0,0"/>
			<circle id="circle1990" fill="#383838" cx="75.719" cy="100.8" r="1.197"/>
		</g>
		<g id="I8pin">
			<path fill="#BFBFBF" d="M73.325,108c0-1.321,1.072-2.394,2.394-2.394c1.322,0,2.394,1.072,2.394,2.394"/>
			<path fill="#E6E6E6" d="M78.113,108c0,1.322-1.071,2.394-2.394,2.394c-1.321,0-2.394-1.071-2.394-2.394"/>
			<circle id="circle1997" fill="#383838" cx="75.719" cy="108" r="1.196"/>
		</g>
		<g id="J8pin">
			<path fill="#BFBFBF" d="M73.325,115.2c0-1.322,1.072-2.394,2.394-2.394c1.322,0,2.394,1.071,2.394,2.394"/>
			<path fill="#E6E6E6" d="M78.113,115.2c0,1.322-1.071,2.394-2.394,2.394c-1.321,0-2.394-1.071-2.394-2.394l0,0"/>
			<circle id="circle2004" fill="#383838" cx="75.719" cy="115.2" r="1.197"/>
		</g>
	</g>
</g>
</svg>
