<?xml version="1.0" standalone="no"?>
<!DOCTYPE svg PUBLIC "-//W3C//DTD SVG 20010904//EN"
 "http://www.w3.org/TR/2001/REC-SVG-20010904/DTD/svg10.dtd">
<svg version="1.0" xmlns="http://www.w3.org/2000/svg" width="500.000000pt" height="500.000000pt" viewBox="0 0 500.000000 500.000000" preserveAspectRatio="xMidYMid meet">
<g transform="translate(0.000000,500.000000) scale(0.100000,-0.100000)"
fill="#000000" stroke="none">
<path d="M2300 3189 c0 -891 -4 -1579 -9 -1577 -4 2 -286 266 -626 588 -340
322 -622 587 -627 588 -4 2 -8 -185 -8 -415 l0 -418 791 -748 792 -748 41 39
c22 21 376 355 786 742 410 387 748 709 752 714 12 17 10 838 -1 834 -6 -1
-290 -268 -633 -592 l-623 -590 -3 1582 -2 1582 -315 0 -315 0 0 -1581z"/>
</g>
</svg>
